<svg width="78" height="78" viewBox="0 0 78 78" fill="none" xmlns="http://www.w3.org/2000/svg">
<path d="M66.2374 11.7627H11.7627V66.2374H66.2374V11.7627Z" stroke="#F0F0F0" stroke-width="2" stroke-linecap="round" stroke-linejoin="round"/>
<path d="M66.2374 11.7627H11.7627V66.2374H66.2374V11.7627Z" stroke="#F0F0F0" stroke-width="2" stroke-linecap="round" stroke-linejoin="round"/>
<path d="M37.6074 11.7627V26.0024H52.9584V32.8989H59.6239V19.424H44.2708V11.7627" stroke="#F0F0F0" stroke-width="2" stroke-linecap="round" stroke-linejoin="round"/>
<path d="M18.8836 26.0024V19.1713H30.7765V26.0024H25.2942V32.8989H11.7627" stroke="#F0F0F0" stroke-width="2" stroke-linecap="round" stroke-linejoin="round"/>
<path d="M38.6211 32.8988H31.3673V39.5839H18.7139V46.2473H30.2712" stroke="#F0F0F0" stroke-width="2" stroke-linecap="round" stroke-linejoin="round"/>
<path d="M59.2012 39.5731H66.2371" stroke="#F0F0F0" stroke-width="2" stroke-linecap="round" stroke-linejoin="round"/>
<path d="M18.7139 59.197V53.475H24.7867V66.2373" stroke="#F0F0F0" stroke-width="2" stroke-linecap="round" stroke-linejoin="round"/>
<path d="M43.9233 35.535L31.3506 57.3075C30.3548 59.031 31.599 61.1882 33.5906 61.1882H58.7361C60.7277 61.1882 61.9719 59.0332 60.9761 57.3075L48.4033 35.535C47.4075 33.8114 44.9191 33.8114 43.9233 35.535Z" fill="#F0F0F0"/>
<path d="M40.6942 35.1701L29.3177 54.8725C28.4156 56.4327 29.5421 58.3851 31.3441 58.3851H54.0971C55.8992 58.3851 57.0257 56.4349 56.1236 54.8725L44.7471 35.1701C43.845 33.61 41.5941 33.61 40.692 35.1701H40.6942Z" fill="#53E9FD"/>
<path d="M43 41.4194V48.9413" stroke="#002C22" stroke-width="3" stroke-linecap="round" stroke-linejoin="round"/>
<path d="M44 54.2423H43" stroke="#002C22" stroke-width="3" stroke-linecap="round" stroke-linejoin="round"/>
</svg>
