<svg width="78" height="78" viewBox="0 0 78 78" fill="none" xmlns="http://www.w3.org/2000/svg">
<path d="M64.7558 53.2565C71.0987 52.945 74.3498 44.7062 74.3498 39.9625C74.3498 32.3013 68.9791 25.8992 61.8181 24.3526C60.243 18.8716 55.2016 14.86 49.2386 14.86C48.455 14.86 47.6821 14.9265 46.9357 15.0676C43.8121 9.85275 38.112 6.37354 31.6097 6.37354C21.7289 6.37354 13.7179 14.4234 13.7179 24.3632C13.7179 24.8557 13.7365 25.3482 13.7843 25.8327C7.00849 26.9321 1.83698 32.8417 1.83698 39.9625C1.83698 47.8713 8.21704 54.2813 16.0872 54.2813H18.7327" stroke="#F0F0F0" stroke-width="2" stroke-miterlimit="10" stroke-linecap="round"/>
<path d="M20.3252 25.751C20.3252 25.751 18.4791 20.23 23.5842 15.8324" stroke="#53E9FD" stroke-width="2" stroke-miterlimit="10" stroke-linecap="round"/>
<path d="M27.2689 13L26.4375 13.5883" stroke="#53E9FD" stroke-width="2" stroke-miterlimit="10" stroke-linecap="round"/>
<path d="M69.2781 40L69.0576 41.0169" stroke="#53E9FD" stroke-width="2" stroke-miterlimit="10" stroke-linecap="round"/>
<path d="M68.0878 43.7933C68.0878 43.7933 67.5991 45.6274 64 48.4412" stroke="#53E9FD" stroke-width="2" stroke-miterlimit="10" stroke-linecap="round"/>
<path d="M43.5285 69.8605H25.151C23.6917 69.8605 22.5059 68.6752 22.5059 67.2126V45.9226C22.5059 44.4601 23.6887 43.2747 25.151 43.2747H51.7669C53.2262 43.2747 54.412 44.4601 54.412 45.9226V51.652L43.5285 69.8605Z" fill="#F0F0F0"/>
<path d="M37.9404 61.5815C41.2326 61.5815 43.9014 58.9068 43.9014 55.6073C43.9014 52.3079 41.2326 49.6332 37.9404 49.6332C34.6482 49.6332 31.9793 52.3079 31.9793 55.6073C31.9793 58.9068 34.6482 61.5815 37.9404 61.5815Z" fill="#FBFBFD"/>
<path d="M57.1845 49.9389L47.6487 66.9068C46.8933 68.2516 47.8361 69.9303 49.3468 69.9303H68.4184C69.9292 69.9303 70.8719 68.2516 70.1166 66.9068L60.5807 49.9389C59.8254 48.5941 57.937 48.5941 57.1816 49.9389H57.1845Z" fill="#F0F0F0"/>
<path d="M52.331 47.8416L43.625 63.1932C42.9366 64.4084 43.7963 65.9303 45.1759 65.9303H62.5881C63.9677 65.9303 64.8304 64.4114 64.1391 63.1932L55.433 47.8416C54.7446 46.6265 53.0194 46.6265 52.331 47.8416Z" fill="#53E9FD"/>
<path d="M53.3826 52.9303V58.9303" stroke="#002C22" stroke-width="2" stroke-miterlimit="10" stroke-linecap="round"/>
<path d="M53.3826 61.9303V62.9303" stroke="#002C22" stroke-width="2" stroke-miterlimit="10" stroke-linecap="round"/>
<path d="M20.5125 41.3976H47.1277C48.0342 41.3976 48.7733 42.1351 48.7733 43.046V48.4982L38.3221 65.9835H20.5125C19.606 65.9835 18.867 65.246 18.867 64.3351V43.046C18.867 42.1344 19.6038 41.3976 20.5125 41.3976Z" fill="#53E9FD" stroke="#53E9FD" stroke-width="2"/>
<path d="M33.7869 58.8606C35.6222 58.8606 37.11 57.3727 37.11 55.5374C37.11 53.7021 35.6222 52.2142 33.7869 52.2142C31.9515 52.2142 30.4637 53.7021 30.4637 55.5374C30.4637 57.3727 31.9515 58.8606 33.7869 58.8606Z" fill="#002C22"/>
<path d="M33.7869 57.7529L33.7869 48.8911" stroke="#002C22" stroke-width="2" stroke-linecap="round"/>
<path d="M41.6171 43.3286H25.1522V36.1809C25.1522 31.6251 28.8388 27.9303 33.3847 27.9303C37.9305 27.9303 41.6171 31.6251 41.6171 36.1809V43.3286Z" stroke="#53E9FD" stroke-width="2" stroke-miterlimit="10"/>
</svg>
