<svg width="96" height="96" viewBox="0 0 96 96" fill="none" xmlns="http://www.w3.org/2000/svg">
<path d="M50.9632 75.363C48.0736 77.1422 44.8352 78.7038 41.2096 79.9774C2.528 66.371 8.02559 20.5246 8.20159 17.2574C22.4704 14.3358 41.2096 5.22217 41.2096 5.22217C41.2096 5.22217 59.9456 14.3358 74.2144 17.2574C74.2944 18.7614 75.5008 29.2798 73.0144 41.523" fill="white"/>
<path d="M50.9632 75.363C48.0736 77.1422 44.8352 78.7038 41.2096 79.9774C2.528 66.371 8.02559 20.5246 8.20159 17.2574C22.4704 14.3358 41.2096 5.22217 41.2096 5.22217C41.2096 5.22217 59.9456 14.3358 74.2144 17.2574C74.2944 18.7614 75.5008 29.2798 73.0144 41.523" stroke="#3267D4" stroke-width="3" stroke-linecap="round" stroke-linejoin="round"/>
<path d="M93.9921 69.0413C93.9441 70.6765 93.6721 72.3341 93.1601 73.9789C90.3057 83.1533 80.6929 88.6189 71.3489 86.3821C61.2017 83.9501 55.1505 73.6301 57.8929 63.6429C60.5041 54.1293 70.3345 48.3181 79.9249 50.6381C80.7601 50.8397 81.5633 51.0957 82.3409 51.3997C82.6961 51.5373 82.8689 51.9405 82.7153 52.2893L75.6177 68.5069L93.3265 68.3565C93.7041 68.3533 94.0049 68.6669 93.9953 69.0445L93.9921 69.0413Z" fill="#C7C7C7"/>
<path d="M89.7919 64.8416C89.7439 66.4768 89.4719 68.1344 88.9599 69.7792C86.1055 78.9536 76.4927 84.4192 67.1487 82.1824C57.0015 79.7504 50.9503 69.4304 53.6927 59.4432C56.3039 49.9296 66.1343 44.1184 75.7247 46.4384C76.5599 46.64 77.3631 46.896 78.1407 47.2C78.4959 47.3376 78.6687 47.7408 78.5151 48.0896L71.4175 64.3072L89.1263 64.1568C89.5039 64.1536 89.8047 64.4672 89.7951 64.8448L89.7919 64.8416Z" fill="#3267D4"/>
<path d="M46.3809 52.8613H38.6309L37.8438 22.1641H47.168L46.3809 52.8613ZM42.5664 66.5449C41.638 66.5449 40.7803 66.3128 39.9932 65.8486C39.2061 65.3844 38.5804 64.7689 38.1162 64.002C37.6722 63.2148 37.4603 62.3672 37.4805 61.459C37.4603 60.5508 37.6722 59.7132 38.1162 58.9463C38.5804 58.1794 39.2061 57.5739 39.9932 57.1299C40.7803 56.6657 41.638 56.4336 42.5664 56.4336C43.4342 56.4336 44.2516 56.6657 45.0186 57.1299C45.8057 57.5739 46.4313 58.1794 46.8955 58.9463C47.3597 59.7132 47.5918 60.5508 47.5918 61.459C47.5918 62.3672 47.3597 63.2148 46.8955 64.002C46.4313 64.7689 45.8057 65.3844 45.0186 65.8486C44.2516 66.3128 43.4342 66.5449 42.5664 66.5449Z" fill="#3267D4"/>
</svg>
