<svg width="78" height="78" viewBox="0 0 78 78" fill="none" xmlns="http://www.w3.org/2000/svg">
<path d="M58.6889 21.9851H71.1345V33.9525L51.8428 56.0766" stroke="#F0F0F0" stroke-width="2" stroke-linecap="round" stroke-linejoin="round"/>
<path d="M71.1341 33.9524H65.0547" stroke="#F0F0F0" stroke-width="2" stroke-linecap="round" stroke-linejoin="round"/>
<path d="M36.5947 21.3174H7.12782C6.50494 21.3174 6 21.8203 6 22.4407V69.8766C6 70.497 6.50494 70.9999 7.12782 70.9999H36.5947C37.2176 70.9999 37.7225 70.497 37.7225 69.8766V22.4407C37.7225 21.8203 37.2176 21.3174 36.5947 21.3174Z" fill="#F0F0F0"/>
<path d="M40.3858 13.9272H13.9933C13.4032 13.9272 12.9248 14.4037 12.9248 14.9914V62.5456C12.9248 63.1333 13.4032 63.6098 13.9933 63.6098H40.3858C40.9759 63.6098 41.4543 63.1333 41.4543 62.5456V14.9914C41.4543 14.4037 40.9759 13.9272 40.3858 13.9272Z" fill="#53E9FD"/>
<path d="M58.6883 27.4686V7.8252H21.4775V56.0765H44.9665L59.136 41.9635V32.4916" fill="#002C22"/>
<path d="M46.9403 54.1106C42.7555 49.9425 44.4225 48.6073 44.4225 48.6073L59.1337 33.9548V41.9659L46.9378 54.1131L46.9403 54.1106Z" fill="#F0F0F0"/>
<path d="M58.6883 27.4686V7.8252H21.4775V56.0765H44.9665L59.136 41.9635V32.4916" stroke="#F0F0F0" stroke-width="2" stroke-linecap="round" stroke-linejoin="round"/>
<path d="M26.7109 18.3145H52.1142" stroke="#F0F0F0" stroke-width="2" stroke-linecap="round" stroke-linejoin="round"/>
<path d="M26.7109 24.9731H43.5615" stroke="#F0F0F0" stroke-width="2" stroke-linecap="round" stroke-linejoin="round"/>
<path d="M26.7109 31.6318H52.7523" stroke="#F0F0F0" stroke-width="2" stroke-linecap="round" stroke-linejoin="round"/>
<path d="M26.7109 38.293H43.8806" stroke="#F0F0F0" stroke-width="2" stroke-linecap="round" stroke-linejoin="round"/>
<path d="M26.7109 44.9517H39.7329" stroke="#F0F0F0" stroke-width="2" stroke-linecap="round" stroke-linejoin="round"/>
</svg>
