<svg width="96" height="96" viewBox="0 0 96 96" fill="none" xmlns="http://www.w3.org/2000/svg">
<path d="M47.5647 77.4079C44.6751 79.1871 41.4367 80.7487 37.8111 82.0223C-0.873743 68.4159 4.62706 22.5695 4.79986 19.3023C19.0687 16.3807 37.8079 7.26709 37.8079 7.26709C37.8079 7.26709 56.5439 16.3807 70.8127 19.3023C70.8927 20.8063 72.0991 31.3247 69.6127 43.5679" fill="white"/>
<path d="M47.5647 77.4079C44.6751 79.1871 41.4367 80.7487 37.8111 82.0223C-0.873743 68.4159 4.62706 22.5695 4.79986 19.3023C19.0687 16.3807 37.8079 7.26709 37.8079 7.26709C37.8079 7.26709 56.5439 16.3807 70.8127 19.3023C70.8927 20.8063 72.0991 31.3247 69.6127 43.5679" stroke="#3267D4" stroke-width="3" stroke-linecap="round" stroke-linejoin="round"/>
<path d="M56.4932 64.5622H31.6093C30.2426 64.5622 29.1375 63.457 29.1375 62.0903V42.2311C29.1375 40.8681 30.2426 39.7593 31.6093 39.7593H56.4932C57.8599 39.7593 58.965 40.8644 58.965 42.2311V62.0903C58.965 63.457 57.8635 64.5622 56.4969 64.5622H56.4932Z" fill="#C7C7C7"/>
<path d="M48.0891 37.3995H32.6946V32.3785C32.6946 28.1274 36.1389 24.6831 40.39 24.6831C44.6411 24.6831 48.0854 28.1274 48.0854 32.3785V37.3995H48.0891Z" stroke="#C7C7C7" stroke-width="3" stroke-miterlimit="10"/>
<path d="M49.3557 57.4245H24.4718C23.1051 57.4245 22 56.3193 22 54.9526V35.0934C22 33.7304 23.1051 32.6216 24.4718 32.6216H49.3557C50.7224 32.6216 51.8275 33.7267 51.8275 35.0934V54.9526C51.8275 56.3193 50.7261 57.4245 49.3594 57.4245H49.3557Z" fill="#3267D4"/>
<path d="M42.2533 44.594C42.6032 48.1194 39.6636 51.0554 36.1382 50.7054C33.5301 50.4475 31.4193 48.3367 31.1614 45.7286C30.8114 42.2033 33.7511 39.2673 37.2765 39.6172C39.8846 39.8751 41.9954 41.9859 42.2533 44.594Z" fill="white"/>
<path d="M44.405 33.7164H29.0105V28.6954C29.0105 24.4443 32.4548 21 36.7059 21C40.957 21 44.4013 24.4443 44.4013 28.6954V33.7164H44.405Z" stroke="#3267D4" stroke-width="3" stroke-miterlimit="10"/>
<path d="M71.8323 48.2191L55.5283 76.4527C54.2355 78.6895 55.8515 81.4831 58.4339 81.4831H91.0387C93.6211 81.4831 95.2339 78.6863 93.9443 76.4527L77.6403 48.2191C76.3475 45.9823 73.1219 45.9823 71.8291 48.2191H71.8323Z" fill="#C7C7C7"/>
<path d="M63.4239 45.8689L48.6719 71.4176C47.5039 73.44 48.9631 75.9712 51.2991 75.9712H80.8031C83.1391 75.9712 84.6015 73.44 83.4303 71.4176L68.6783 45.8689C67.5103 43.8465 64.5887 43.8465 63.4207 45.8689H63.4239Z" fill="#3267D4"/>
<path d="M66.051 53.9746V63.7282" stroke="white" stroke-width="3" stroke-linecap="round" stroke-linejoin="round"/>
<path d="M66.051 68.5215V70.2975" stroke="white" stroke-width="3" stroke-linecap="round" stroke-linejoin="round"/>
</svg>
