<svg width="80" height="78" viewBox="0 0 80 78" fill="none" xmlns="http://www.w3.org/2000/svg">
<path d="M62.7486 43.3618C72.1754 43.362 79.817 51.0043 79.817 60.4312C79.8168 69.8578 72.1753 77.4993 62.7486 77.4995C53.3218 77.4995 45.6794 69.8579 45.6793 60.4312C45.6793 51.0042 53.3216 43.3618 62.7486 43.3618ZM67.2886 48.519C66.65 47.9917 65.7049 48.0818 65.1773 48.7202L55.7261 60.1636L50.8892 55.3257C50.3036 54.74 49.354 54.7393 48.7681 55.3247C48.1822 55.9103 48.1825 56.8609 48.7681 57.4468L54.7711 63.4526C55.0698 63.7514 55.4809 63.9101 55.9029 63.8901C56.325 63.8701 56.7197 63.673 56.9888 63.3472L67.4898 50.6304C68.0171 49.9917 67.9272 49.0465 67.2886 48.519Z" fill="#F0F0F0"/>
<path d="M62.6821 38.0013V19.1487L49.3181 5.98486H11.8157V67.3241H40.6341" stroke="#F0F0F0" stroke-width="2" stroke-linecap="round" stroke-linejoin="round"/>
<path d="M62.6824 19.3489H62.4822L49.347 19.3203L49.3184 5.98486L62.4822 19.1487L62.6824 19.3489Z" fill="#F0F0F0" stroke="#F0F0F0" stroke-width="2" stroke-linecap="round" stroke-linejoin="round"/>
<path d="M19.9697 21.6816H46.2375" stroke="#F0F0F0" stroke-width="2" stroke-linecap="round" stroke-linejoin="round"/>
<path d="M19.9697 30.2354H53.6839" stroke="#F0F0F0" stroke-width="2" stroke-linecap="round" stroke-linejoin="round"/>
<path d="M19.9697 38.3892H36.8281" stroke="#F0F0F0" stroke-width="2" stroke-linecap="round" stroke-linejoin="round"/>
<path d="M58.149 39.7612C67.5757 39.7614 75.2173 47.4038 75.2173 56.8306C75.2173 66.2574 67.5758 73.8997 58.149 73.8999C48.722 73.8999 41.0797 66.2575 41.0797 56.8306C41.0797 47.4037 48.7221 39.7612 58.149 39.7612ZM67.2886 48.519C66.65 47.9917 65.7049 48.0818 65.1773 48.7202L55.7261 60.1636L50.8892 55.3257C50.3036 54.74 49.354 54.7393 48.7681 55.3247C48.1822 55.9103 48.1825 56.8609 48.7681 57.4468L54.7711 63.4526C55.0698 63.7514 55.4809 63.9101 55.9029 63.8901C56.325 63.8701 56.7197 63.673 56.9888 63.3472L67.4898 50.6304C68.0171 49.9917 67.9272 49.0465 67.2886 48.519Z" fill="#53E9FD"/>
</svg>
