<svg width="80" height="78" viewBox="0 0 80 78" fill="none" xmlns="http://www.w3.org/2000/svg">
<path d="M54.9591 56.1093H1V9H69.0519V29.4635" stroke="#F0F0F0" stroke-width="2" stroke-linecap="round" stroke-linejoin="round"/>
<path d="M21.0352 15.2954H8.65574C8.27152 15.2954 7.96008 15.6069 7.96008 15.9911V49.1168C7.96008 49.501 8.27152 49.8124 8.65574 49.8124H21.0352C21.4194 49.8124 21.7308 49.501 21.7308 49.1168V15.9911C21.7308 15.6069 21.4194 15.2954 21.0352 15.2954Z" fill="#F0F0F0"/>
<path d="M41.3633 15.2954H28.9839C28.5997 15.2954 28.2882 15.6069 28.2882 15.9911V49.1168C28.2882 49.501 28.5997 49.8124 28.9839 49.8124H41.3633C41.7475 49.8124 42.059 49.501 42.059 49.1168V15.9911C42.059 15.6069 41.7475 15.2954 41.3633 15.2954Z" fill="#F0F0F0"/>
<path d="M62.0924 40.3655V41.5C62.0924 41.8828 51.8861 49.8135 51.5002 49.8135H49.0143C48.6315 49.8135 48.3186 49.5037 48.3186 49.1178V15.9891C48.3186 15.6064 48.6285 15.2935 49.0143 15.2935H61.3967C61.7795 15.2935 62.0924 15.6033 62.0924 15.9891V40.3655Z" fill="#F0F0F0"/>
<path d="M77.0068 43.9043C78.3469 43.9043 79.4297 44.9928 79.4297 46.332V65.8535C79.4295 67.1963 78.347 68.2812 77.0107 68.2812H52.5996C51.2598 68.2811 50.1769 67.1925 50.1768 65.8535V46.332C50.1768 44.9892 51.2633 43.9044 52.5996 43.9043H77.0068ZM59.9893 45.8809C56.5965 45.546 53.7696 48.3708 54.1045 51.7646C54.353 54.2722 56.3803 56.3039 58.8906 56.5527C62.2835 56.8878 65.1113 54.063 64.7764 50.6689C64.5276 48.1615 62.4996 46.1295 59.9893 45.8809Z" fill="#F0F0F0"/>
<path d="M71.2373 39.0283C72.5327 39.0283 73.5801 40.1169 73.5801 41.4561V60.9775C73.5799 62.3203 72.533 63.4053 71.2412 63.4053H47.6445C46.3492 63.4053 45.3019 62.3166 45.3018 60.9775V41.4561C45.3018 40.1132 46.3527 39.0283 47.6445 39.0283H71.2373ZM59.9893 45.8809C56.5965 45.546 53.7696 48.3708 54.1045 51.7646C54.353 54.2722 56.3803 56.3039 58.8906 56.5527C62.2835 56.8878 65.1113 54.063 64.7764 50.6689C64.5276 48.1615 62.4996 46.1294 59.9893 45.8809Z" fill="#53E9FD"/>
<path d="M66.7517 40.003H52.125V35.3838C52.125 31.4708 55.4003 28.3018 59.4366 28.3018C63.4764 28.3018 66.7482 31.4742 66.7482 35.3838V40.003H66.7517Z" stroke="#53E9FD" stroke-width="2" stroke-miterlimit="10"/>
</svg>
