<svg width="96" height="96" viewBox="0 0 96 96" fill="none" xmlns="http://www.w3.org/2000/svg">
<g clip-path="url(#clip0_167_148)">
<path d="M46.1283 20.131V40.9758C46.1283 41.331 45.8403 41.619 45.4851 41.619H38.9315C38.5763 41.619 38.2883 41.907 38.2883 42.2622V46.643C38.2883 47.1806 37.6867 47.5006 37.2387 47.203L29.2803 41.859C29.2483 41.8366 29.2195 41.8142 29.1907 41.7886C29.0851 41.6894 28.9539 41.619 28.8099 41.619H14.1539C13.7987 41.619 13.5107 41.331 13.5107 40.9758V20.131C13.5107 19.7758 13.7987 19.4878 14.1539 19.4878H45.4851C45.8403 19.4878 46.1283 19.7758 46.1283 20.131Z" fill="#C7C7C7"/>
<path d="M20.7016 32.4544C21.7514 32.4544 22.6024 31.6034 22.6024 30.5536C22.6024 29.5038 21.7514 28.6528 20.7016 28.6528C19.6518 28.6528 18.8008 29.5038 18.8008 30.5536C18.8008 31.6034 19.6518 32.4544 20.7016 32.4544Z" fill="white"/>
<path d="M29.6615 32.4544C30.7113 32.4544 31.5623 31.6034 31.5623 30.5536C31.5623 29.5038 30.7113 28.6528 29.6615 28.6528C28.6118 28.6528 27.7607 29.5038 27.7607 30.5536C27.7607 31.6034 28.6118 32.4544 29.6615 32.4544Z" fill="white"/>
<path d="M38.9416 32.4544C39.9914 32.4544 40.8424 31.6034 40.8424 30.5536C40.8424 29.5038 39.9914 28.6528 38.9416 28.6528C37.8918 28.6528 37.0408 29.5038 37.0408 30.5536C37.0408 31.6034 37.8918 32.4544 38.9416 32.4544Z" fill="white"/>
<path d="M42.9279 16.9313V37.7761C42.9279 38.1313 42.6399 38.4193 42.2847 38.4193H35.7311C35.3759 38.4193 35.0879 38.7073 35.0879 39.0625V43.4433C35.0879 43.9809 34.4863 44.3009 34.0383 44.0033L26.0799 38.6593C26.0479 38.6369 26.0191 38.6145 25.9903 38.5889C25.8847 38.4897 25.7535 38.4193 25.6095 38.4193H10.9535C10.5983 38.4193 10.3103 38.1313 10.3103 37.7761V16.9313C10.3103 16.5761 10.5983 16.2881 10.9535 16.2881H42.2847C42.6399 16.2881 42.9279 16.5761 42.9279 16.9313Z" fill="#3267D4"/>
<path d="M17.5011 29.2547C18.5509 29.2547 19.4019 28.4037 19.4019 27.3539C19.4019 26.3041 18.5509 25.4531 17.5011 25.4531C16.4514 25.4531 15.6003 26.3041 15.6003 27.3539C15.6003 28.4037 16.4514 29.2547 17.5011 29.2547Z" fill="white"/>
<path d="M26.4611 29.2547C27.5109 29.2547 28.3619 28.4037 28.3619 27.3539C28.3619 26.3041 27.5109 25.4531 26.4611 25.4531C25.4113 25.4531 24.5603 26.3041 24.5603 27.3539C24.5603 28.4037 25.4113 29.2547 26.4611 29.2547Z" fill="white"/>
<path d="M35.7411 29.2547C36.7909 29.2547 37.6419 28.4037 37.6419 27.3539C37.6419 26.3041 36.7909 25.4531 35.7411 25.4531C34.6913 25.4531 33.8403 26.3041 33.8403 27.3539C33.8403 28.4037 34.6913 29.2547 35.7411 29.2547Z" fill="white"/>
<path d="M54.7908 14.0642V34.8834C54.7908 35.245 55.0852 35.5394 55.4468 35.5394H61.9748C62.3364 35.5394 62.6308 35.8338 62.6308 36.1954V40.5634C62.6308 41.101 63.2324 41.421 63.6804 41.1234L71.6388 35.7794C71.6708 35.757 71.6996 35.7346 71.7284 35.709C71.8564 35.5874 72.0388 35.5394 72.218 35.5394H86.7556C87.1172 35.5394 87.4116 35.245 87.4116 34.8834V14.0642C87.4116 13.7026 87.1172 13.4082 86.7556 13.4082H55.45C55.0884 13.4082 54.794 13.7026 54.794 14.0642H54.7908Z" fill="#C7C7C7"/>
<path d="M51.5908 10.864V31.6832C51.5908 32.0448 51.8852 32.3392 52.2468 32.3392H58.7748C59.1364 32.3392 59.4308 32.6336 59.4308 32.9952V37.3632C59.4308 37.9008 60.0324 38.2208 60.4804 37.9232L68.4388 32.5792C68.4708 32.5568 68.4996 32.5344 68.5284 32.5088C68.6564 32.3872 68.8388 32.3392 69.018 32.3392H83.5556C83.9172 32.3392 84.2116 32.0448 84.2116 31.6832V10.864C84.2116 10.5024 83.9172 10.208 83.5556 10.208H52.25C51.8884 10.208 51.594 10.5024 51.594 10.864H51.5908Z" fill="#3267D4"/>
<path d="M77.0177 23.1746C78.0675 23.1746 78.9185 22.3236 78.9185 21.2738C78.9185 20.2241 78.0675 19.373 77.0177 19.373C75.968 19.373 75.1169 20.2241 75.1169 21.2738C75.1169 22.3236 75.968 23.1746 77.0177 23.1746Z" fill="white"/>
<path d="M68.058 23.1746C69.1078 23.1746 69.9588 22.3236 69.9588 21.2738C69.9588 20.2241 69.1078 19.373 68.058 19.373C67.0082 19.373 66.1572 20.2241 66.1572 21.2738C66.1572 22.3236 67.0082 23.1746 68.058 23.1746Z" fill="white"/>
<path d="M58.7777 23.1746C59.8275 23.1746 60.6786 22.3236 60.6786 21.2738C60.6786 20.2241 59.8275 19.373 58.7777 19.373C57.728 19.373 56.877 20.2241 56.877 21.2738C56.877 22.3236 57.728 23.1746 58.7777 23.1746Z" fill="white"/>
<path d="M74.8604 84.205L94.1051 84.2529C94.0219 81.4274 89.9932 76.5569 85.7404 75.4721C81.4876 74.3873 80.2364 72.1313 80.2364 72.1313" fill="white"/>
<path d="M74.8604 84.205L94.1051 84.253C94.0219 81.4273 89.9932 76.5569 85.7404 75.4721C81.4876 74.3873 80.2364 72.1313 80.2364 72.1313" stroke="#3267D4" stroke-width="2" stroke-linecap="round" stroke-linejoin="round"/>
<path d="M70.9757 71.7378C70.9757 71.7378 70.5629 73.741 67.6541 74.9794L70.9757 71.7378Z" fill="white"/>
<path d="M70.9757 71.7378C70.9757 71.7378 70.5629 73.741 67.6541 74.9794" stroke="#3267D4" stroke-width="2" stroke-linecap="round" stroke-linejoin="round"/>
<path d="M75.9389 50.2305H75.9325C70.9151 50.2305 66.8477 54.2979 66.8477 59.3153V64.1249C66.8477 69.1423 70.9151 73.2097 75.9325 73.2097H75.9389C80.9563 73.2097 85.0237 69.1423 85.0237 64.1249V59.3153C85.0237 54.2979 80.9563 50.2305 75.9389 50.2305Z" fill="white" stroke="#3267D4" stroke-width="2" stroke-miterlimit="10"/>
<path d="M31.2508 75.1615C27.8332 74.0095 26.7932 72.1279 26.7932 72.1279L31.2508 75.1615Z" fill="white"/>
<path d="M31.2508 75.1615C27.8332 74.0095 26.7932 72.1279 26.7932 72.1279" stroke="#3267D4" stroke-width="2" stroke-linecap="round" stroke-linejoin="round"/>
<path d="M17.5355 71.7378C17.5355 71.7378 16.9883 74.3842 12.7355 75.4722C8.48273 76.557 4.32273 81.3346 4.23633 84.1602L23.6987 84.2082" fill="white"/>
<path d="M17.5355 71.7378C17.5355 71.7378 16.9883 74.3842 12.7355 75.4722C8.48273 76.557 4.32273 81.3346 4.23633 84.1602L23.6987 84.2082" stroke="#3267D4" stroke-width="2" stroke-linecap="round" stroke-linejoin="round"/>
<path d="M22.4984 50.2305H22.492C17.4746 50.2305 13.4072 54.2979 13.4072 59.3153V64.1249C13.4072 69.1423 17.4746 73.2097 22.492 73.2097H22.4984C27.5158 73.2097 31.5832 69.1423 31.5832 64.1249V59.3153C31.5832 54.2979 27.5158 50.2305 22.4984 50.2305Z" fill="white" stroke="#3267D4" stroke-width="2" stroke-miterlimit="10"/>
<path d="M43.0884 70.4707C43.0884 70.4707 42.394 73.8339 36.9892 75.2163C31.5844 76.5987 26.298 82.6659 26.1924 86.2563L72.4772 86.3747C72.3716 82.7843 67.2516 76.5955 61.8468 75.2163C56.442 73.8371 54.8548 70.9699 54.8548 70.9699" fill="white"/>
<path d="M43.0884 70.4707C43.0884 70.4707 42.394 73.8339 36.9892 75.2163C31.5844 76.5987 26.298 82.6659 26.1924 86.2563L72.4772 86.3747C72.3716 82.7843 67.2516 76.5955 61.8468 75.2163C56.442 73.8371 54.8548 70.9699 54.8548 70.9699" stroke="#3267D4" stroke-width="2" stroke-linecap="round" stroke-linejoin="round"/>
<path d="M49.3896 43.1426H49.3864C43.01 43.1426 37.8408 48.3117 37.8408 54.6882V60.797C37.8408 67.1734 43.01 72.3426 49.3864 72.3426H49.3896C55.7661 72.3426 60.9352 67.1734 60.9352 60.797V54.6882C60.9352 48.3117 55.7661 43.1426 49.3896 43.1426Z" fill="white" stroke="#3267D4" stroke-width="2" stroke-miterlimit="10"/>
</g>
<defs>
<clipPath id="clip0_167_148">
<rect width="96" height="96" fill="white"/>
</clipPath>
</defs>
</svg>
