<svg width="97" height="96" viewBox="0 0 97 96" fill="none" xmlns="http://www.w3.org/2000/svg">
<path d="M86.1986 57.3206L86.2995 42.734L76.4764 42.1647C76.0872 40.8819 75.6043 39.6423 75.0242 38.4568L81.7951 31.0122L71.5144 20.6632L64.1848 27.2358C63.0209 26.616 61.7993 26.0899 60.5345 25.6575L60.0228 15.604H45.4359L44.935 25.4269C43.8792 25.7548 42.8558 26.1548 41.8648 26.6124L34.557 19.6867L23.9952 29.751L30.4166 37.2136C29.7715 38.3667 29.213 39.5738 28.7517 40.8314L18.698 41.1377L18.3989 55.7243L28.2184 56.427C28.5896 57.7134 29.0544 58.9602 29.6166 60.1529L22.7447 67.5074L32.8813 77.9969L40.2973 71.5288C41.4541 72.1666 42.6684 72.7108 43.9296 73.1612L44.3044 83.2183L58.8913 83.4201L59.5292 73.5972C60.812 73.2188 62.0588 72.7432 63.2479 72.1738L70.6459 78.9951L81.0672 68.7866L74.5485 61.4177C75.1755 60.2574 75.7124 59.0358 76.1521 57.7746L86.2094 57.3314L86.1986 57.3206Z" fill="#E1E3E4"/>
<path d="M82.5979 53.014L82.688 39.8291C82.688 39.4363 82.3852 39.112 81.9925 39.0868L73.3729 38.5895C73.0666 38.5715 72.8108 38.3661 72.7171 38.0778C72.4072 37.1265 72.0432 36.1969 71.6288 35.296C71.5027 35.0258 71.5496 34.7087 71.7478 34.4889L77.7151 27.9271C77.9782 27.6352 77.971 27.1884 77.6935 26.9109L68.4001 17.5565C68.1226 17.279 67.6758 17.2646 67.3839 17.5276L60.9553 23.2931C60.7283 23.4985 60.4003 23.5345 60.1301 23.3976C59.2472 22.9507 58.3319 22.5544 57.3914 22.2157C57.1104 22.1148 56.9194 21.8589 56.9014 21.5634L56.4509 12.6991C56.4293 12.3063 56.1086 12 55.7158 12H42.5306C42.1379 12 41.8135 12.3063 41.7955 12.6991L41.3559 21.3184C41.3415 21.6247 41.1361 21.8841 40.8478 21.9814C40.1199 22.2265 39.4064 22.5039 38.7109 22.8102C38.4371 22.9291 38.12 22.8787 37.9038 22.6733L31.4643 16.5691C31.1797 16.2989 30.7328 16.2989 30.4481 16.5691L20.9025 25.6677C20.6178 25.938 20.5962 26.3848 20.852 26.6839L26.4843 33.2313C26.6825 33.4619 26.7149 33.7898 26.5708 34.06C26.1023 34.9357 25.6843 35.8401 25.324 36.7734C25.2159 37.0509 24.9564 37.2383 24.6609 37.2491L15.7964 37.5193C15.4036 37.5301 15.0901 37.8472 15.0829 38.24L14.8126 51.4249C14.8054 51.8176 15.1045 52.1491 15.4973 52.1744L24.1132 52.7905C24.4159 52.8122 24.6718 53.0212 24.7619 53.313C25.0573 54.2679 25.4068 55.2012 25.8104 56.1057C25.933 56.3759 25.8825 56.693 25.6807 56.9092L19.6233 63.3918C19.3566 63.68 19.3602 64.1269 19.6305 64.4079L28.7941 73.8921C29.068 74.1732 29.5149 74.1948 29.8103 73.9353L36.3182 68.26C36.5489 68.0582 36.8768 68.0257 37.147 68.1663C38.0263 68.6275 38.9344 69.0347 39.8713 69.3878C40.1487 69.4923 40.3397 69.7518 40.3506 70.0473L40.682 78.9116C40.6965 79.3044 41.0172 79.6179 41.41 79.6215L54.5951 79.8017C54.9879 79.8053 55.3158 79.5026 55.3411 79.1134L55.8996 70.4941C55.9176 70.1878 56.1266 69.9319 56.4185 69.8419C57.3734 69.5392 58.3031 69.1824 59.2076 68.7753C59.4779 68.6527 59.795 68.6996 60.0148 68.9014L66.5371 74.9119C66.8254 75.1785 67.2722 75.1713 67.5533 74.8974L76.9728 65.6691C77.2539 65.3953 77.2683 64.9484 77.0088 64.653L71.2901 58.1884C71.0883 57.9614 71.0523 57.6335 71.1892 57.3597C71.6432 56.4768 72.0432 55.5652 72.3891 54.6283C72.4936 54.3508 72.7495 54.1562 73.045 54.1454L81.9096 53.7563C82.3024 53.7382 82.6123 53.4175 82.6159 53.0248L82.5979 53.014Z" fill="#3267D4"/>
<path d="M48.4304 62.711C32.3985 56.8698 33.4399 38.6474 33.721 34.9936C33.7462 34.662 33.9876 34.3918 34.3119 34.3161C39.9334 33.0549 46.8304 29.8767 48.3763 29.1452C48.5781 29.0479 48.8088 29.0479 49.0142 29.1452C50.5745 29.8731 57.5545 33.0549 63.1867 34.3161C63.5146 34.3882 63.7524 34.662 63.7776 34.9936C64.0443 38.651 64.992 56.8698 48.9601 62.7074C48.7907 62.7686 48.5998 62.7686 48.434 62.7074L48.4304 62.711Z" fill="white"/>
<path d="M39.6904 45.2562L47.3335 53.0972L59.3979 37.4404" stroke="#3267D4" stroke-width="2" stroke-linecap="round" stroke-linejoin="round"/>
<path d="M85.0771 45.9009H95.6786" stroke="#3267D4" stroke-width="2" stroke-linecap="round" stroke-linejoin="round"/>
<path d="M1.83691 45.9009H12.4384" stroke="#3267D4" stroke-width="2" stroke-linecap="round" stroke-linejoin="round"/>
<path d="M20.7277 32.9288H10.1262V25.1562" stroke="#3267D4" stroke-width="2" stroke-linecap="round" stroke-linejoin="round"/>
<path d="M10.1134 24.752C12.5215 24.752 14.4736 22.7999 14.4736 20.3919C14.4736 17.9838 12.5215 16.0317 10.1134 16.0317C7.7053 16.0317 5.75317 17.9838 5.75317 20.3919C5.75317 22.7999 7.7053 24.752 10.1134 24.752Z" stroke="#3267D4" stroke-width="2" stroke-linecap="round" stroke-linejoin="round"/>
<path d="M20.7277 56.751H10.1262V64.5235" stroke="#3267D4" stroke-width="2" stroke-linecap="round" stroke-linejoin="round"/>
<path d="M10.1136 73.6465C12.5217 73.6465 14.4738 71.6944 14.4738 69.2864C14.4738 66.8784 12.5217 64.9263 10.1136 64.9263C7.70555 64.9263 5.75342 66.8784 5.75342 69.2864C5.75342 71.6944 7.70555 73.6465 10.1136 73.6465Z" stroke="#3267D4" stroke-width="2" stroke-linecap="round" stroke-linejoin="round"/>
<path d="M78.5454 32.9288H89.1468V25.1562" stroke="#3267D4" stroke-width="2" stroke-linecap="round" stroke-linejoin="round"/>
<path d="M89.1564 24.752C91.5644 24.752 93.5166 22.7999 93.5166 20.3919C93.5166 17.9838 91.5644 16.0317 89.1564 16.0317C86.7483 16.0317 84.7961 17.9838 84.7961 20.3919C84.7961 22.7999 86.7483 24.752 89.1564 24.752Z" stroke="#3267D4" stroke-width="2" stroke-linecap="round" stroke-linejoin="round"/>
<path d="M78.5454 56.751H89.1468V64.5235" stroke="#3267D4" stroke-width="2" stroke-linecap="round" stroke-linejoin="round"/>
<path d="M89.1564 73.6465C91.5644 73.6465 93.5166 71.6944 93.5166 69.2864C93.5166 66.8784 91.5644 64.9263 89.1564 64.9263C86.7483 64.9263 84.7961 66.8784 84.7961 69.2864C84.7961 71.6944 86.7483 73.6465 89.1564 73.6465Z" stroke="#3267D4" stroke-width="2" stroke-linecap="round" stroke-linejoin="round"/>
</svg>
