<svg width="20" height="20" viewBox="0 0 20 20" fill="none" xmlns="http://www.w3.org/2000/svg">
<path d="M20 10C20 15.5228 15.5228 20 10 20C4.47715 20 0 15.5228 0 10C0 4.47715 4.47715 0 10 0C15.5228 0 20 4.47715 20 10Z" fill="#3267D4"/>
<path d="M13.1254 6.81027C13.4337 6.50196 13.9334 6.50196 14.2417 6.81027C14.55 7.11858 14.55 7.61833 14.2417 7.92664L8.97857 13.1898C8.69411 13.4742 8.24109 13.4997 7.92696 13.2484L5.29538 11.1431C4.95491 10.8707 4.89965 10.3734 5.17203 10.0329C5.4444 9.69246 5.94175 9.6372 6.28222 9.90957L8.36179 11.5728L13.1254 6.81027Z" fill="white"/>
</svg>
