<svg width="79" height="78" viewBox="0 0 79 78" fill="none" xmlns="http://www.w3.org/2000/svg">
<path d="M39.7856 64.5854C37.3723 66.1074 34.6676 67.4433 31.6396 68.5328C-0.66611 56.8932 3.92532 17.6739 4.07231 14.879C15.9892 12.3797 31.6396 4.5835 31.6396 4.5835C31.6396 4.5835 47.2874 12.3797 59.2043 14.879C59.2711 16.1656 60.2787 25.1636 58.2021 35.637" stroke="#F0F0F0" stroke-width="2" stroke-linecap="round" stroke-linejoin="round"/>
<path d="M45.4112 34.8486C46.4026 34.8488 47.2042 35.6701 47.2042 36.6855V45.5C47.2042 46.5156 43.9916 53.2803 43.0001 53.2803H27.3575C26.3662 53.2801 25.5647 52.4587 25.5645 51.4434V36.6855C25.5645 36.0181 25.9135 35.434 26.4346 35.1123C25.8142 36.056 25.4962 37.2166 25.6192 38.4561C25.8571 40.8614 27.8035 42.8081 30.2081 43.0459C33.4583 43.3684 36.1684 40.6605 35.8458 37.4092C35.7517 36.458 35.3899 35.5791 34.8389 34.8486H45.4112Z" fill="#F0F0F0"/>
<path d="M41.1075 27.7051C42.1907 27.7051 43.0665 28.667 43.0665 29.8564V47.1396C43.0665 48.3291 42.1936 49.291 41.1104 49.291H21.3839C20.3007 49.2909 19.4249 48.329 19.4249 47.1396V29.8564C19.4249 28.6703 20.3007 27.7052 21.3839 27.7051H41.1075ZM31.2569 32.8193C28.0066 32.4967 25.2965 35.2046 25.6192 38.4561C25.8571 40.8614 27.8035 42.8081 30.2081 43.0459C33.4583 43.3684 36.1684 40.6605 35.8458 37.4092C35.608 35.0037 33.6616 33.0572 31.2569 32.8193Z" fill="#53E9FD"/>
<path d="M37.9272 28.681H24.5645V24.2165C24.5645 20.4366 27.5543 17.374 31.2443 17.374C34.9343 17.374 37.924 20.4366 37.924 24.2165V28.681H37.9272Z" stroke="#53E9FD" stroke-width="2" stroke-miterlimit="10"/>
<path d="M76.8781 52.4699C77.3031 54.0083 77.5302 55.6344 77.5302 57.3124C77.5302 67.1398 69.7531 75.1058 60.1587 75.1058C50.5642 75.1058 42.7871 67.1398 42.7871 57.3124C42.7871 47.485 50.5642 39.519 60.1587 39.519C61.0139 39.519 61.8531 39.582 62.6762 39.7052L60.1587 57.3124L76.8781 52.4699Z" stroke="#F0F0F0" stroke-width="2" stroke-linecap="round" stroke-linejoin="round"/>
<path d="M60.1561 57.3123L74.7322 66.9973C74.7322 66.9973 79.3824 60.1154 76.8783 52.4697C75.248 52.9406 60.1588 57.3123 60.1588 57.3123H60.1561Z" fill="#F0F0F0" stroke="#F0F0F0" stroke-width="2" stroke-linecap="round" stroke-linejoin="round"/>
<path d="M60.1561 57.3121L75.9776 41.1064H70.7341" stroke="#F0F0F0" stroke-width="2" stroke-linecap="round" stroke-linejoin="round"/>
<path d="M75.9768 41.1064V46.1844" stroke="#F0F0F0" stroke-width="2" stroke-linecap="round" stroke-linejoin="round"/>
</svg>
