<svg width="96" height="96" viewBox="0 0 96 96" fill="none" xmlns="http://www.w3.org/2000/svg">
<path d="M87.3203 22.7622C89.5294 22.7622 91.3203 24.5531 91.3203 26.7622V76.2397C91.3203 78.4489 89.5294 80.2397 87.3203 80.2397H21.7031C19.494 80.2397 17.7031 78.4489 17.7031 76.2397V72.478H83.6172V22.7622H87.3203Z" fill="#C7C7C7"/>
<path d="M83.6171 15H9.99976V72.4778H83.6171V15Z" stroke="#3267D4" stroke-width="3" stroke-linecap="round" stroke-linejoin="round"/>
<path d="M16.2656 56.294L25.5256 47.0837L31.8357 49.6157L50.7659 31.1558L59.926 37.5685L74.1762 23.7256H67.8661" stroke="#3267D4" stroke-width="3" stroke-linecap="round" stroke-linejoin="round"/>
<path d="M74.1738 23.7256V29.4258" stroke="#3267D4" stroke-width="3" stroke-linecap="round" stroke-linejoin="round"/>
<path d="M9.99976 65.5078H83.6171" stroke="#3267D4" stroke-width="3" stroke-linecap="round" stroke-linejoin="round"/>
<path d="M32.5691 57.2119H25.1022C24.803 57.2119 24.5605 57.4544 24.5605 57.7535V64.9655C24.5605 65.2647 24.803 65.5072 25.1022 65.5072H32.5691C32.8682 65.5072 33.1107 65.2647 33.1107 64.9655V57.7535C33.1107 57.4544 32.8682 57.2119 32.5691 57.2119Z" fill="#3267D4"/>
<path d="M46.2463 52.7412H38.7794C38.4803 52.7412 38.2378 52.9837 38.2378 53.2828V64.9645C38.2378 65.2637 38.4803 65.5062 38.7794 65.5062H46.2463C46.5454 65.5062 46.7879 65.2637 46.7879 64.9645V53.2828C46.7879 52.9837 46.5454 52.7412 46.2463 52.7412Z" fill="#3267D4"/>
<path d="M60.4463 47.4844H52.9794C52.6802 47.4844 52.4377 47.7269 52.4377 48.026V64.9662C52.4377 65.2653 52.6802 65.5078 52.9794 65.5078H60.4463C60.7454 65.5078 60.9879 65.2653 60.9879 64.9662V48.026C60.9879 47.7269 60.7454 47.4844 60.4463 47.4844Z" fill="#3267D4"/>
<path d="M74.8969 40.1211H67.43C67.1309 40.1211 66.8884 40.3636 66.8884 40.6627V64.9648C66.8884 65.2639 67.1309 65.5064 67.43 65.5064H74.8969C75.1961 65.5064 75.4386 65.2639 75.4386 64.9648V40.6627C75.4386 40.3636 75.1961 40.1211 74.8969 40.1211Z" fill="#3267D4"/>
<path d="M38.9924 72.4771V79.3315" stroke="#3267D4" stroke-width="3" stroke-linecap="round" stroke-linejoin="round"/>
<path d="M54.8774 72.4771V79.3315" stroke="#3267D4" stroke-width="3" stroke-linecap="round" stroke-linejoin="round"/>
<path d="M62.1347 79.3325H30.9236" stroke="#3267D4" stroke-width="3" stroke-linecap="round" stroke-linejoin="round"/>
</svg>
