<svg width="83" height="78" viewBox="0 0 83 78" fill="none" xmlns="http://www.w3.org/2000/svg">
<path d="M41.4298 62.8465C37.9788 64.2706 34.1978 65.0558 30.2282 65.0558C14.0846 65.0558 1 52.0492 1 36.0041C1 19.959 14.0846 6.95239 30.2282 6.95239C44.1999 6.95239 55.8818 16.6978 58.7728 29.722" stroke="#F0F0F0" stroke-width="2" stroke-linecap="round" stroke-linejoin="round"/>
<path d="M30.2314 16.3521H30.2284C24.3561 16.3521 19.5957 21.0852 19.5957 26.9238V32.5173C19.5957 38.3559 24.3561 43.089 30.2284 43.089H30.2314C36.1037 43.089 40.8641 38.3559 40.8641 32.5173V26.9238C40.8641 21.0852 36.1037 16.3521 30.2314 16.3521Z" stroke="#F0F0F0" stroke-width="2" stroke-miterlimit="10"/>
<path d="M24.4253 41.3748C24.4253 41.3748 23.7858 44.4543 18.8084 45.7201C13.8309 46.9859 8.96249 52.5413 8.86523 55.8288" stroke="#F0F0F0" stroke-width="2" stroke-miterlimit="10"/>
<path d="M35.2588 41.832C35.2588 41.832 36.7205 44.4574 41.698 45.7202C46.6754 46.9831 51.3906 52.6499 51.4879 55.9374" stroke="#F0F0F0" stroke-width="2" stroke-miterlimit="10"/>
<path d="M64.1451 72.0001C74.0294 72.0001 82.0422 64.0359 82.0422 54.2116C82.0422 44.3873 74.0294 36.4231 64.1451 36.4231C54.2608 36.4231 46.248 44.3873 46.248 54.2116C46.248 64.0359 54.2608 72.0001 64.1451 72.0001Z" fill="#F0F0F0"/>
<path d="M60.8619 68.7359C70.7462 68.7359 78.759 60.7717 78.759 50.9474C78.759 41.1231 70.7462 33.1589 60.8619 33.1589C50.9776 33.1589 42.9648 41.1231 42.9648 50.9474C42.9648 60.7717 50.9776 68.7359 60.8619 68.7359Z" fill="#53E9FD"/>
<path d="M58.8545 54.875C58.8649 53.625 58.9795 52.6146 59.1982 51.8438C59.417 51.0625 59.7295 50.4375 60.1357 49.9688C60.5524 49.5 61.1045 49.0521 61.792 48.625C62.5524 48.125 63.1357 47.6198 63.542 47.1094C63.9587 46.599 64.167 46.0104 64.167 45.3438C64.167 44.8333 64.0472 44.3854 63.8076 44C63.568 43.6042 63.2399 43.2969 62.8232 43.0781C62.4066 42.8594 61.9482 42.75 61.4482 42.75C60.9482 42.75 60.4795 42.8594 60.042 43.0781C59.6149 43.2969 59.266 43.6198 58.9951 44.0469C58.7347 44.4635 58.5941 44.9688 58.5732 45.5625H54.1357C54.167 44.1458 54.5055 42.9531 55.1514 41.9844C55.8076 41.0052 56.6826 40.276 57.7764 39.7969C58.8805 39.3073 60.1149 39.0625 61.4795 39.0625C62.9274 39.0625 64.2139 39.3073 65.3389 39.7969C66.4639 40.2865 67.3389 40.9948 67.9639 41.9219C68.5993 42.8385 68.917 43.9271 68.917 45.1875C68.917 46.4167 68.6253 47.4688 68.042 48.3438C67.4691 49.2188 66.6357 49.9792 65.542 50.625C64.9274 51 64.4378 51.375 64.0732 51.75C63.7191 52.1146 63.4482 52.5469 63.2607 53.0469C63.0837 53.5469 62.9899 54.1562 62.9795 54.875V55.2188H58.8545V54.875ZM61.0107 62.2812C60.5316 62.2812 60.0889 62.1615 59.6826 61.9219C59.2764 61.6823 58.9535 61.3646 58.7139 60.9688C58.4847 60.5625 58.3753 60.125 58.3857 59.6562C58.3753 59.1875 58.4847 58.7552 58.7139 58.3594C58.9535 57.9635 59.2764 57.651 59.6826 57.4219C60.0889 57.1823 60.5316 57.0625 61.0107 57.0625C61.4587 57.0625 61.8805 57.1823 62.2764 57.4219C62.6826 57.651 63.0055 57.9635 63.2451 58.3594C63.4847 58.7552 63.6045 59.1875 63.6045 59.6562C63.6045 60.125 63.4847 60.5625 63.2451 60.9688C63.0055 61.3646 62.6826 61.6823 62.2764 61.9219C61.8805 62.1615 61.4587 62.2812 61.0107 62.2812Z" fill="#002C22"/>
</svg>
