<svg width="96" height="96" viewBox="0 0 96 96" fill="none" xmlns="http://www.w3.org/2000/svg">
<path d="M78.5762 15.52H4.63696V77.8656H78.5762V15.52Z" fill="white"/>
<path d="M22.6146 77.8656H4.63696V15.52H78.5762V48.7072" fill="white"/>
<path d="M22.6146 77.8656H4.63696V15.52H78.5762V48.7072" stroke="#3267D4" stroke-width="3" stroke-linecap="round" stroke-linejoin="round"/>
<path d="M4.82593 28.896H78.7651" stroke="#3267D4" stroke-width="3" stroke-miterlimit="10"/>
<path d="M12.1155 22.291H15.6035" stroke="#3267D4" stroke-width="3" stroke-linecap="round" stroke-linejoin="round"/>
<path d="M20.1667 22.291H23.9396" stroke="#3267D4" stroke-width="3" stroke-linecap="round" stroke-linejoin="round"/>
<path d="M28.5027 22.291H32.2787" stroke="#3267D4" stroke-width="3" stroke-linecap="round" stroke-linejoin="round"/>
<path d="M66.6083 61.9647L66.6819 51.1903L59.4275 50.7711C59.1395 49.8239 58.7811 48.9087 58.3555 48.0319L63.3539 42.5343L55.7603 34.8895L50.3491 39.7439C49.4883 39.2863 48.5859 38.8959 47.6515 38.5759L47.2739 31.1519H36.4995L36.1283 38.4063C35.3475 38.6495 34.5923 38.9439 33.8595 39.2831L28.4643 34.1695L20.6659 41.6031L25.4083 47.1135C24.9315 47.9647 24.5187 48.8575 24.1795 49.7855L16.7523 50.0095L16.5315 60.7807L23.7827 61.2991C24.0547 62.2495 24.4003 63.1679 24.8163 64.0511L19.7411 69.4815L27.2291 77.2287L32.7075 72.4511C33.5619 72.9215 34.4579 73.3247 35.3891 73.6575L35.6643 81.0847L46.4387 81.2319L46.9091 73.9775C47.8563 73.6991 48.7747 73.3471 49.6547 72.9279L55.1171 77.9647L62.8131 70.4255L57.9971 64.9823C58.4611 64.1247 58.8547 63.2255 59.1811 62.2911L66.6083 61.9647Z" fill="white" stroke="#3267D4" stroke-width="3" stroke-linecap="round" stroke-linejoin="round"/>
<path d="M41.6068 67.2352C47.6669 67.2352 52.5796 62.3225 52.5796 56.2624C52.5796 50.2022 47.6669 45.2896 41.6068 45.2896C35.5467 45.2896 30.634 50.2022 30.634 56.2624C30.634 62.3225 35.5467 67.2352 41.6068 67.2352Z" fill="white" stroke="#3267D4" stroke-width="3" stroke-miterlimit="10"/>
<path d="M78.3694 93.2017C88.0808 93.2017 95.9534 85.3291 95.9534 75.6177C95.9534 65.9063 88.0808 58.0337 78.3694 58.0337C68.658 58.0337 60.7854 65.9063 60.7854 75.6177C60.7854 85.3291 68.658 93.2017 78.3694 93.2017Z" fill="#C7C7C7"/>
<path d="M72.4964 87.3247C82.2077 87.3247 90.0804 79.4521 90.0804 69.7407C90.0804 60.0294 82.2077 52.1567 72.4964 52.1567C62.785 52.1567 54.9124 60.0294 54.9124 69.7407C54.9124 79.4521 62.785 87.3247 72.4964 87.3247Z" fill="#3267D4"/>
<path d="M63.978 69.7406L70.7684 76.7038L81.482 62.7998" stroke="white" stroke-width="3" stroke-linecap="round" stroke-linejoin="round"/>
</svg>
