<svg width="96" height="96" viewBox="0 0 96 96" fill="none" xmlns="http://www.w3.org/2000/svg">
<path d="M35.7609 67.2447H9.59131V19.3887H85.5721V67.2447H35.7609Z" fill="white"/>
<path d="M85.5723 47.6318V67.2446H76.9451" fill="white"/>
<path d="M85.5723 47.6318V67.2446H76.9451" stroke="#3267D4" stroke-width="2" stroke-linecap="round" stroke-linejoin="round"/>
<path d="M35.7609 67.2447H9.59131V19.3887H50.0585" fill="white"/>
<path d="M35.7609 67.2447H9.59131V19.3887H50.0585" stroke="#3267D4" stroke-width="2" stroke-linecap="round" stroke-linejoin="round"/>
<path d="M55.9243 42.3519V16.5151H86.9067V42.3519L71.4155 51.9807L55.9243 42.3519Z" fill="white" stroke="#3267D4" stroke-width="2" stroke-linecap="round" stroke-linejoin="round"/>
<path d="M61.6428 37.5967L67.8412 31.3055L71.2716 34.7359L79.8508 26.1567" stroke="#3267D4" stroke-width="2" stroke-linecap="round" stroke-linejoin="round"/>
<path d="M22.9379 47.2256H15.4052C14.9845 47.2256 14.6436 47.5666 14.6436 47.9872V58.3808C14.6436 58.8014 14.9845 59.1424 15.4052 59.1424H22.9379C23.3586 59.1424 23.6996 58.8014 23.6996 58.3808V47.9872C23.6996 47.5666 23.3586 47.2256 22.9379 47.2256Z" fill="#3267D4"/>
<path d="M35.498 38.3584H27.9652C27.5446 38.3584 27.2036 38.6994 27.2036 39.12V58.3808C27.2036 58.8014 27.5446 59.1424 27.9652 59.1424H35.498C35.9186 59.1424 36.2596 58.8014 36.2596 58.3808V39.12C36.2596 38.6994 35.9186 38.3584 35.498 38.3584Z" fill="#3267D4"/>
<path d="M48.7971 30.9697H41.2643C40.8437 30.9697 40.5027 31.3107 40.5027 31.7313V58.3777C40.5027 58.7983 40.8437 59.1393 41.2643 59.1393H48.7971C49.2177 59.1393 49.5587 58.7983 49.5587 58.3777V31.7313C49.5587 31.3107 49.2177 30.9697 48.7971 30.9697Z" fill="#3267D4"/>
<path d="M61.951 91.1217C70.8088 91.1217 77.9894 83.9411 77.9894 75.0833C77.9894 66.2256 70.8088 59.0449 61.951 59.0449C53.0932 59.0449 45.9126 66.2256 45.9126 75.0833C45.9126 83.9411 53.0932 91.1217 61.951 91.1217Z" fill="#E1E3E4"/>
<path d="M55.2547 84.4288C64.1125 84.4288 71.2931 77.2482 71.2931 68.3904C71.2931 59.5327 64.1125 52.3521 55.2547 52.3521C46.3969 52.3521 39.2163 59.5327 39.2163 68.3904C39.2163 77.2482 46.3969 84.4288 55.2547 84.4288Z" fill="#3267D4"/>
<path d="M59.6871 63.0498C59.6871 63.0498 56.2055 61.8626 53.7127 62.5346C51.6295 63.0946 50.8327 65.7474 52.3271 67.3026C52.8679 67.8658 53.6327 68.077 55.6359 68.3906C59.0215 68.9154 59.9271 69.821 60.0199 71.5362C60.1127 73.2514 58.9703 74.6338 55.9207 74.7778C52.8711 74.9218 50.9639 73.5394 50.9639 73.5394" stroke="white" stroke-width="2" stroke-linecap="round" stroke-linejoin="round"/>
<path d="M55.9238 74.7778V77.7314" stroke="white" stroke-width="2" stroke-linecap="round" stroke-linejoin="round"/>
<path d="M55.9238 62.3298V58.9058" stroke="white" stroke-width="2" stroke-linecap="round" stroke-linejoin="round"/>
</svg>
