<svg width="96" height="96" viewBox="0 0 96 96" fill="none" xmlns="http://www.w3.org/2000/svg">
<path d="M85.9681 16.1089H9.33447V70.9409H85.9681V16.1089Z" fill="white" stroke="#3267D4" stroke-width="2" stroke-linecap="round" stroke-linejoin="round"/>
<path d="M4.6687 69.3279H90.6367V75.4815C90.6367 78.6943 88.0287 81.3023 84.8159 81.3023H10.4895C7.2767 81.3023 4.6687 78.6943 4.6687 75.4815V69.3279Z" fill="#F7F8F8" stroke="#3267D4" stroke-width="2" stroke-linecap="round" stroke-linejoin="round"/>
<path d="M35.5679 28.2188H70.433C70.9055 28.2188 71.2893 28.6026 71.2893 29.0751V48.7919C71.2893 58.8865 63.093 67.0787 53.0026 67.0787C42.9079 67.0787 34.7158 58.8823 34.7158 48.7919V29.0751C34.7158 28.6026 35.0997 28.2188 35.5722 28.2188H35.5679Z" fill="#E1E3E4"/>
<path d="M29.3489 22H64.214C64.6865 22 65.0704 22.3839 65.0704 22.8563V42.5731C65.0704 52.6678 56.874 60.8599 46.7836 60.8599C36.689 60.8599 28.4968 52.6636 28.4968 42.5731V22.8563C28.4968 22.3839 28.8807 22 29.3532 22H29.3489Z" fill="#3267D4"/>
<path d="M53.5911 35H39.4089C38.6308 35 38 35.6694 38 36.495V48.505C38 49.3307 38.6308 50 39.4089 50H53.5911C54.3692 50 55 49.3307 55 48.505V36.495C55 35.6694 54.3692 35 53.5911 35Z" fill="white"/>
<path d="M49.9821 42.1433C50.2025 44.3584 48.3548 46.2026 46.1412 45.9821C44.5045 45.8178 43.1773 44.4944 43.0179 42.8567C42.7975 40.6416 44.6452 38.7974 46.8588 39.0179C48.4955 39.1822 49.8227 40.5056 49.9821 42.1433Z" fill="#3267D4"/>
<path d="M50.9956 36H42V32.3342C42 29.9422 44.0121 28 46.5 28C48.9835 28 51 29.938 51 32.3342V36H50.9956Z" stroke="white" stroke-width="2" stroke-miterlimit="10"/>
</svg>
