<svg width="107" height="107" viewBox="0 0 107 107" fill="none" xmlns="http://www.w3.org/2000/svg">
<path d="M86.7133 23.2339H13.7214V76.8944H86.7133V23.2339Z" fill="white"/>
<path d="M56.0399 76.898H13.7214V23.2339H86.7133V32.9459" fill="white"/>
<path d="M56.0399 76.898H13.7214V23.2339H86.7133V32.9459" stroke="#3267D4" stroke-width="2" stroke-linecap="round" stroke-linejoin="round"/>
<path d="M48.8136 29.4031H21.2468V70.0845H48.8136V29.4031Z" fill="white" stroke="#3267D4" stroke-width="2" stroke-linecap="round" stroke-linejoin="round"/>
<path d="M42.3654 54.6816H27.685C27.2359 54.6816 26.8718 55.0457 26.8718 55.4948V55.4984C26.8718 55.9475 27.2359 56.3116 27.685 56.3116H42.3654C42.8145 56.3116 43.1786 55.9475 43.1786 55.4984V55.4948C43.1786 55.0457 42.8145 54.6816 42.3654 54.6816Z" fill="#3267D4"/>
<path d="M42.3654 60.1875H27.685C27.2359 60.1875 26.8718 60.5516 26.8718 61.0007V61.0043C26.8718 61.4534 27.2359 61.8175 27.685 61.8175H42.3654C42.8145 61.8175 43.1786 61.4534 43.1786 61.0043V61.0007C43.1786 60.5516 42.8145 60.1875 42.3654 60.1875Z" fill="#3267D4"/>
<path d="M42.3654 49.0408H27.685C27.2359 49.0408 26.8718 49.4049 26.8718 49.854V49.8575C26.8718 50.3067 27.2359 50.6707 27.685 50.6707H42.3654C42.8145 50.6707 43.1786 50.3067 43.1786 49.8575V49.854C43.1786 49.4049 42.8145 49.0408 42.3654 49.0408Z" fill="#3267D4"/>
<path d="M102.129 42.9517H67.2181C66.8123 42.9517 66.4834 43.2806 66.4834 43.6864V91.9898C66.4834 92.3956 66.8123 92.7245 67.2181 92.7245H102.129C102.534 92.7245 102.863 92.3956 102.863 91.9898V43.6864C102.863 43.2806 102.534 42.9517 102.129 42.9517Z" fill="#E1E3E4"/>
<path d="M94.3384 35.1555H59.4278C59.0221 35.1555 58.6931 35.4845 58.6931 35.8903V84.1936C58.6931 84.5994 59.0221 84.9284 59.4278 84.9284H94.3384C94.7442 84.9284 95.0731 84.5994 95.0731 84.1936V35.8903C95.0731 35.4845 94.7442 35.1555 94.3384 35.1555Z" fill="#3267D4"/>
<path d="M69.709 77.2671H86.2084" stroke="white" stroke-width="2" stroke-linecap="round" stroke-linejoin="round"/>
<path d="M71.7142 56.1409H67.4378C67.0556 56.1409 66.7458 56.4507 66.7458 56.8328V68.428C66.7458 68.8102 67.0556 69.12 67.4378 69.12H71.7142C72.0964 69.12 72.4061 68.8102 72.4061 68.428V56.8328C72.4061 56.4507 72.0964 56.1409 71.7142 56.1409Z" fill="white"/>
<path d="M79.8085 51.8604H75.739C75.2997 51.8604 74.9436 52.2164 74.9436 52.6557V68.3241C74.9436 68.7634 75.2997 69.1195 75.739 69.1195H79.8085C80.2478 69.1195 80.6039 68.7634 80.6039 68.3241V52.6557C80.6039 52.2164 80.2478 51.8604 79.8085 51.8604Z" fill="white"/>
<path d="M87.8922 46.1331H84.0723C83.5641 46.1331 83.1521 46.545 83.1521 47.0533V68.2C83.1521 68.7082 83.5641 69.1202 84.0723 69.1202H87.8922C88.4004 69.1202 88.8124 68.7082 88.8124 68.2V47.0533C88.8124 46.545 88.4004 46.1331 87.8922 46.1331Z" fill="white"/>
</svg>
