<svg width="96" height="96" viewBox="0 0 96 96" fill="none" xmlns="http://www.w3.org/2000/svg">
<path d="M57.6463 34.8239C57.6463 47.7527 46.5671 58.2332 32.9022 58.2332C28.5603 58.2332 24.4775 57.173 20.9328 55.3157L11.0796 58.2332L13.7503 49.6424C10.2542 45.608 8.16211 40.4446 8.16211 34.8239C8.16211 21.8951 19.2373 11.4146 32.9022 11.4146C46.5671 11.4146 57.6463 21.8951 57.6463 34.8239Z" fill="white"/>
<path d="M24.2643 38.894C26.6868 38.894 28.6506 36.9301 28.6506 34.5076C28.6506 32.085 26.6868 30.1211 24.2643 30.1211C21.8418 30.1211 19.8779 32.085 19.8779 34.5076C19.8779 36.9301 21.8418 38.894 24.2643 38.894Z" fill="#3267D4"/>
<path d="M41.6208 38.894C44.0433 38.894 46.0071 36.9301 46.0071 34.5076C46.0071 32.085 44.0433 30.1211 41.6208 30.1211C39.1983 30.1211 37.2344 32.085 37.2344 34.5076C37.2344 36.9301 39.1983 38.894 41.6208 38.894Z" fill="#3267D4"/>
<path d="M36.3781 58.0065C35.241 58.1562 34.0838 58.2372 32.9022 58.2372C28.5603 58.2372 24.4775 57.177 20.9328 55.3196L11.0796 58.2372L13.7503 49.6463C10.2542 45.6119 8.16211 40.4485 8.16211 34.8278C8.16211 21.899 19.2373 11.4185 32.9022 11.4185C46.5671 11.4185 57.6463 21.899 57.6463 34.8278" fill="white"/>
<path d="M36.3781 58.0065C35.241 58.1562 34.0838 58.2372 32.9022 58.2372C28.5603 58.2372 24.4775 57.177 20.9328 55.3196L11.0796 58.2372L13.7503 49.6463C10.2542 45.6119 8.16211 40.4485 8.16211 34.8278C8.16211 21.899 19.2373 11.4185 32.9022 11.4185C46.5671 11.4185 57.6463 21.899 57.6463 34.8278" stroke="#3267D4" stroke-width="2" stroke-linecap="round" stroke-linejoin="round"/>
<path d="M24.2643 38.894C26.6868 38.894 28.6506 36.9301 28.6506 34.5076C28.6506 32.085 26.6868 30.1211 24.2643 30.1211C21.8418 30.1211 19.8779 32.085 19.8779 34.5076C19.8779 36.9301 21.8418 38.894 24.2643 38.894Z" fill="#3267D4"/>
<path d="M41.6208 38.894C44.0433 38.894 46.0071 36.9301 46.0071 34.5076C46.0071 32.085 44.0433 30.1211 41.6208 30.1211C39.1983 30.1211 37.2344 32.085 37.2344 34.5076C37.2344 36.9301 39.1983 38.894 41.6208 38.894Z" fill="#3267D4"/>
<path d="M65.5507 85.9997C77.9493 85.9997 88.0004 75.9484 88.0004 63.5494C88.0004 51.1505 77.9493 41.0991 65.5507 41.0991C53.152 41.0991 43.1008 51.1505 43.1008 63.5494C43.1008 75.9484 53.152 85.9997 65.5507 85.9997Z" fill="#E1E3E4"/>
<path d="M61.503 81.9543C73.9017 81.9543 83.9528 71.903 83.9528 59.504C83.9528 47.1051 73.9017 37.0537 61.503 37.0537C49.1044 37.0537 39.0532 47.1051 39.0532 59.504C39.0532 71.903 49.1044 81.9543 61.503 81.9543Z" fill="#3267D4"/>
<path d="M50.6301 59.5036L59.2976 68.3939L72.9747 50.6416" stroke="white" stroke-width="2" stroke-linecap="round" stroke-linejoin="round"/>
</svg>
