

<svg id="logo_pass" data-name="logo_pass" xmlns="http://www.w3.org/2000/svg" width="60.827" height="20.138" viewBox="0 0 60.827 20.138">
  <path id="pass_p" data-name="pass_p" transform="translate(-779.194 -739.746)" fill="#241e1c" fill-rule="evenodd" 

    d="M803.367,740.444a.843.843,0,0,0-.939-.655h-4.164a.9.9,0,0,0-.939.655l-4.945,18.764q-.189.655.375.656h3.005a.624.624,0,0,0,.454-.141.954.954,0,0,0,.2-.515l.737-2.963,5.638-3.152.606,2.68.877,3.434a1.05,1.05,0,0,0,.188.515.614.614,0,0,0,.469.141h3q.563,0,.375-.656Zm-4.882,10.444,1.839-7.4,1.44,5.563Z"/>

  <path id="pass_pa" data-name="pass_pa" transform="translate(-836.256 -739.745)" fill="#241e1c" fill-rule="evenodd"

    d="M878.27,748.936a15.935,15.935,0,0,0-4.726-1.062q-2.567-.218-2.567-1.686V745.6a2.84,2.84,0,0,1,.454-1.889,2.367,2.367,0,0,1,1.737-.484h1.221a2.561,2.561,0,0,1,1.722.437,2.24,2.24,0,0,1,.469,1.655v.187a.581.581,0,0,0,.658.656h2.66a.58.58,0,0,0,.657-.656v-.593a5.032,5.032,0,0,0-1.377-3.777,5.283,5.283,0,0,0-3.85-1.343H872.2a5.236,5.236,0,0,0-3.819,1.343A5.029,5.029,0,0,0,867,744.908V746a6.114,6.114,0,0,0,.734,3.169,3.7,3.7,0,0,0,1.831,1.655,15.234,15.234,0,0,0,2.363.687,19.607,19.607,0,0,0,2.363.358,3.889,3.889,0,0,1,1.831.579,1.564,1.564,0,0,1,.736,1.389v.375a2.412,2.412,0,0,1-.486,1.748,2.437,2.437,0,0,1-1.705.468H873.2a2.553,2.553,0,0,1-1.722-.437,2.188,2.188,0,0,1-.469-1.623v-.25a.58.58,0,0,0-.658-.656h-2.66a.58.58,0,0,0-.658.656v.624a5.033,5.033,0,0,0,1.377,3.778,5.241,5.241,0,0,0,3.819,1.343h3.412a5.242,5.242,0,0,0,3.819-1.343,5.035,5.035,0,0,0,1.376-3.778v-1.061a5.811,5.811,0,0,0-.735-3.075,4.009,4.009,0,0,0-1.831-1.67" />

  <path id="pass_pas" data-name="pass_pass" transform="translate(-888.897 -739.745)" fill="#241e1c" fill-rule="evenodd"

    d="M948.989,750.606a4.01,4.01,0,0,0-1.831-1.67,15.944,15.944,0,0,0-4.727-1.062q-2.566-.218-2.567-1.686V745.6a2.843,2.843,0,0,1,.454-1.889,2.368,2.368,0,0,1,1.737-.484h1.221a2.563,2.563,0,0,1,1.723.437,2.243,2.243,0,0,1,.469,1.655v.187a.58.58,0,0,0,.658.656h2.66a.58.58,0,0,0,.658-.656v-.593a5.03,5.03,0,0,0-1.377-3.777,5.283,5.283,0,0,0-3.85-1.343h-3.13a5.239,5.239,0,0,0-3.819,1.343,5.032,5.032,0,0,0-1.378,3.777V746a6.114,6.114,0,0,0,.736,3.169,3.7,3.7,0,0,0,1.831,1.655,15.236,15.236,0,0,0,2.364.687,19.575,19.575,0,0,0,2.364.358,3.888,3.888,0,0,1,1.831.579,1.564,1.564,0,0,1,.736,1.389v.375a1.816,1.816,0,0,1-2.191,2.217h-1.472a2.556,2.556,0,0,1-1.722-.437,2.185,2.185,0,0,1-.47-1.623v-.25a.58.58,0,0,0-.657-.656h-2.66a.58.58,0,0,0-.657.656v.624a5.032,5.032,0,0,0,1.377,3.778,5.24,5.24,0,0,0,3.819,1.343h3.413a5.239,5.239,0,0,0,3.818-1.343,5.03,5.03,0,0,0,1.378-3.778v-1.061a5.814,5.814,0,0,0-.736-3.075" />
  <path id="pass_pass" data-name="pass_pas" transform="translate(-736.618 -739.605)" fill="#241e1c" fill-rule="evenodd"

    d="M746.267,739.6h-9.18a.469.469,0,0,0-.47.469v19.2a.469.469,0,0,0,.47.469h3.13a.469.469,0,0,0,.469-.469v-6.91c1.665-.913,6.065-3.327,6.4-3.536a5.266,5.266,0,0,0,3.434-5.016c0-3.766-4.252-4.207-4.252-4.207m-1.151,6.124-4.429,2.232v-4.282a.377.377,0,0,1,.344-.255h3.831a1.08,1.08,0,0,1,1.1,1.121,1.369,1.369,0,0,1-.841,1.184" />
</svg>
